<?xml version="1.0" ?><!DOCTYPE svg  PUBLIC '-//W3C//DTD SVG 1.1//EN'  'http://www.w3.org/Graphics/SVG/1.1/DTD/svg11.dtd'><svg enable-background="new 0 0 128 128" height="128px" id="Layer_1" version="1.1" viewBox="0 0 128 128" width="128px" xml:space="preserve" xmlns="http://www.w3.org/2000/svg" xmlns:xlink="http://www.w3.org/1999/xlink"><g><path d="M100,109.5c0,3.584-2.916,6.5-6.5,6.5h-75c-3.584,0-6.5-2.916-6.5-6.5v-75c0-3.584,2.916-6.5,6.5-6.5h55.071l12-12H18.5   C8.299,16,0,24.299,0,34.5v75C0,119.701,8.299,128,18.5,128h75c10.201,0,18.5-8.299,18.5-18.5V42.442l-12,12V109.5z"/><path d="M126.379,8.879l-7.242-7.255c-2.18-2.172-5.72-2.167-7.896,0.021L39.585,73.297L32,95.998l22.711-7.582l71.646-71.647   C128.541,14.584,128.546,11.046,126.379,8.879z"/></g></svg>