<?xml version="1.0" ?><!DOCTYPE svg  PUBLIC '-//W3C//DTD SVG 1.1//EN'  'http://www.w3.org/Graphics/SVG/1.1/DTD/svg11.dtd'><svg height="512px" style="shape-rendering:geometricPrecision; text-rendering:geometricPrecision; image-rendering:optimizeQuality; fill-rule:evenodd; clip-rule:evenodd" version="1.1" viewBox="0 0 512 512" width="512px" xml:space="preserve" xmlns="http://www.w3.org/2000/svg" xmlns:xlink="http://www.w3.org/1999/xlink"><defs><style type="text/css">
   <![CDATA[
    .fil0 {fill:#2B2A29}
   ]]>
  </style></defs><g id="Layer_x0020_1"><path class="fil0" d="M19 453l113 0 0 -185c0,-16 13,-29 29,-29l0 0c16,0 29,13 29,29l0 185 21 0 93 0 21 0 0 -185c0,-16 13,-29 29,-29l0 0c16,0 29,13 29,29l0 185 113 0 0 -403 0 0c-100,0 -188,52 -240,130 -51,-78 -140,-130 -240,-130l0 0 0 403z"/></g></svg>