<?xml version="1.0" ?><!DOCTYPE svg  PUBLIC '-//W3C//DTD SVG 1.1//EN'  'http://www.w3.org/Graphics/SVG/1.1/DTD/svg11.dtd'><svg enable-background="new 0 0 128 128" id="Слой_1" version="1.1" viewBox="0 0 128 128" xml:space="preserve" xmlns="http://www.w3.org/2000/svg" xmlns:xlink="http://www.w3.org/1999/xlink"><g><path d="M109.712,59.207l-8.555-8.674c-0.782-0.793-2.157-0.803-2.948-0.021l-2.703,2.667   c-0.818,0.808-0.828,2.13-0.013,2.957l8.661,8.575c0.194,0.192,0.448,0.289,0.703,0.289c0.254,0,0.508-0.096,0.703-0.288   l4.143-4.091C110.096,60.232,110.1,59.6,109.712,59.207z M104.858,62.594l-7.949-7.871c-0.033-0.033-0.032-0.087,0.001-0.12   l2.703-2.667l-0.702-0.712l0.822,0.714l7.853,7.962L104.858,62.594z" fill="#323638"/><path d="M63.422,37.441c0,10.72,8.722,19.441,19.441,19.441s19.441-8.722,19.441-19.441S93.583,18,82.863,18   S63.422,26.722,63.422,37.441z M82.863,20c9.617,0,17.441,7.824,17.441,17.441S92.48,54.883,82.863,54.883   s-17.441-7.824-17.441-17.441S73.246,20,82.863,20z" fill="#323638"/><path d="M89.167,82.914c-1.146,1.589-1.975,2.737-2.314,3.676c-1.152,3.191-0.815,17.184-0.684,21.41H52.546   l-0.07-5.015c-0.158-6.529-7.977-6.529-11.316-6.529l-1.359,0.008c-0.363,0.003-0.72,0.012-1.072,0.021   c-0.39,0.011-0.773,0.021-1.149,0.021c-1.641,0-2.876-0.199-3.968-1.188c-1.478-1.339-1.498-4.218-1.498-4.231l0.275-16.827   c0.004-0.281-0.109-0.551-0.314-0.744c-0.204-0.192-0.477-0.289-0.761-0.27c-1.251,0.095-2.387-0.047-3.503-0.399   c-1.23-0.39-2.001-1.655-1.756-2.882c0.385-1.925,1.67-3.842,3.03-5.871c1.583-2.361,3.376-5.037,4.093-8.27   c0.851-3.834,0.849-6.294-0.04-7.166c0.273-15.725,13.167-28.46,31.516-28.648l2.441,0.102c0.734-0.668,1.513-1.285,2.327-1.857   L65.065,18c-19.812,0-33.931,13.951-33.931,31.099c0,0.306,0.145,0.599,0.385,0.788c0.102,0.081,0.481,2.009-0.293,5.503   c-0.636,2.865-2.245,5.268-3.802,7.59c-1.474,2.199-2.866,4.276-3.33,6.592c-0.443,2.212,0.925,4.487,3.114,5.181   c1.021,0.323,2.085,0.497,3.164,0.518l-0.258,15.797c0,0.153,0.013,3.793,2.155,5.733c1.654,1.498,3.53,1.705,5.311,1.705   c0.393,0,0.793-0.011,1.201-0.021c0.34-0.009,0.686-0.018,1.036-0.021l1.344-0.008c4.781,0,9.219,0.555,9.316,4.567l0.083,5.99   c0.008,0.547,0.453,0.986,1,0.986h35.643c0.271,0,0.531-0.11,0.72-0.306s0.29-0.459,0.28-0.73   c-0.183-5.117-0.444-18.992,0.532-21.694c0.244-0.675,1.043-1.783,2.055-3.186c2.372-3.289,8.253-8.48,11.135-15.952l-1.549-1.534   C97.787,74.295,91.555,79.604,89.167,82.914z" fill="#323638"/></g></svg>