<?xml version="1.0" ?><!DOCTYPE svg  PUBLIC '-//W3C//DTD SVG 1.0//EN'  'http://www.w3.org/TR/2001/REC-SVG-20010904/DTD/svg10.dtd'><svg height="512px" style="shape-rendering:geometricPrecision; text-rendering:geometricPrecision; image-rendering:optimizeQuality; fill-rule:evenodd; clip-rule:evenodd" version="1.0" viewBox="0 0 512 512" width="512px" xml:space="preserve" xmlns="http://www.w3.org/2000/svg" xmlns:xlink="http://www.w3.org/1999/xlink"><defs><style type="text/css">
   <![CDATA[
    .fil0 {fill:black;fill-rule:nonzero}
   ]]>
  </style></defs><g id="Layer_x0020_1"><path class="fil0" d="M67 500l0 -16 12 -1c10,-1 15,-2 18,-5 2,-3 4,-12 4,-28 1,-32 1,-68 1,-105 0,-20 0,-43 0,-69 0,-15 -1,-25 -3,-28 -1,-2 -2,-3 -4,-4 -2,-1 -11,-2 -28,-3l0 -16c16,0 31,0 47,0 18,0 35,0 51,0 7,17 14,33 22,50 5,12 29,61 71,148 45,-90 76,-156 94,-198 16,1 31,1 45,1 17,0 33,0 48,-1l0 16c-17,1 -27,3 -29,5 -2,2 -4,8 -4,18 -1,17 -1,48 -1,94 0,23 0,48 1,74 0,26 1,41 3,44 1,2 2,4 4,5 2,1 11,2 28,4l0 16c-21,-1 -40,-1 -57,-1 -17,0 -40,0 -68,1l0 -16 11 0c9,0 15,-2 17,-4 2,-2 4,-8 4,-17 1,-9 1,-31 1,-66l0 -119c-20,41 -46,94 -78,160 -13,27 -23,49 -30,66l-13 0c-10,-23 -23,-51 -39,-86l-68 -140 0 27c0,74 0,125 1,153 0,11 2,18 5,21 3,3 12,4 29,5l0 16c-13,-1 -27,-1 -40,-1 -20,0 -38,0 -53,1zm295 -465c11,0 20,9 20,20 0,11 -9,20 -20,20 0,0 -1,0 -1,0l-31 100c0,0 -4,14 -28,14l-24 0 0 0 0 0 0 0 0 0 0 0 0 0 0 0 0 0 0 0 0 0 -1 0 -1 0 0 0 0 0 -1 0 0 0 0 0 -1 0 0 0 0 0 -1 0 0 0 -1 0 -1 0 0 0 -1 0 0 0 -1 0 -1 0 0 0 -1 0 0 0 -1 0 0 0 -1 0 0 0 -1 0 -1 0 -1 0 -1 0 0 0 -1 0 0 0 -1 0 0 0 -1 0 0 0 -1 0 0 0 -1 0 0 0 -1 0 -1 0 -1 0 -1 0 0 0 -1 0 0 0 -1 0 0 0 -1 0 0 0 -1 0 -1 0 0 0 -1 0 0 0 -1 0 -1 0 0 0 -1 0 0 0 0 0 -1 0 0 0 0 0 -1 0 0 0 0 0 -1 0 -1 0 0 0 0 0 0 0 0 0 0 0 0 0 0 0 0 0 0 0 0 0 -24 0c-23,0 -28,-14 -28,-14l-31 -100c0,0 -1,0 -1,0 -11,0 -20,-9 -20,-20 0,-11 9,-20 20,-20 11,0 20,9 20,20 0,5 -2,9 -4,12 9,8 25,22 34,29 14,10 26,-2 26,-2l24 -48 0 0c-8,-3 -13,-10 -13,-19 0,-11 9,-20 20,-20l0 0 0 0c11,0 20,9 20,20 0,9 -6,16 -13,19l0 0 24 48c0,0 13,12 26,2 9,-7 25,-21 34,-29 -3,-3 -4,-8 -4,-12 0,-11 9,-20 20,-20z"/></g></svg>